<svg width="77" height="77" viewBox="0 0 77 77" fill="none" xmlns="http://www.w3.org/2000/svg">
<path d="M39.6228 29.9978C39.302 29.677 38.9277 29.5166 38.4999 29.5166C38.0721 29.5166 37.6978 29.677 37.377 29.9978L28.3937 38.9812C27.9124 39.4624 27.7916 40.0367 28.0311 40.704C28.2707 41.3714 28.7658 41.7061 29.5166 41.7083H47.4833C48.2319 41.7083 48.7259 41.3735 48.9655 40.704C49.2051 40.0346 49.0853 39.4603 48.6062 38.9812L39.6228 29.9978ZM38.4999 6.41659C42.9381 6.41659 47.1089 7.25931 51.0124 8.94475C54.9159 10.6302 58.3114 12.9156 61.1989 15.801C64.0864 18.6885 66.3718 22.0839 68.0551 25.9874C69.7384 29.8909 70.5811 34.0617 70.5833 38.4999C70.5833 42.9381 69.7405 47.1089 68.0551 51.0124C66.3696 54.9159 64.0842 58.3114 61.1989 61.1989C58.3114 64.0864 54.9159 66.3718 51.0124 68.0551C47.1089 69.7384 42.9381 70.5811 38.4999 70.5833C34.0617 70.5833 29.8909 69.7405 25.9874 68.0551C22.0839 66.3696 18.6885 64.0842 15.801 61.1989C12.9135 58.3114 10.627 54.9159 8.94155 51.0124C7.2561 47.1089 6.41445 42.9381 6.41659 38.4999C6.41659 34.0617 7.25931 29.8909 8.94475 25.9874C10.6302 22.0839 12.9156 18.6885 15.801 15.801C18.6885 12.9135 22.0839 10.627 25.9874 8.94155C29.8909 7.2561 34.0617 6.41445 38.4999 6.41659Z" fill="#FD600F"/>
</svg>
